<svg width="107" height="22" viewBox="0 0 107 22" fill="none" xmlns="http://www.w3.org/2000/svg">
<path d="M11.116 21.3919C14.7 21.3919 17.864 19.5999 19.544 16.7719L16.212 14.8399C15.288 16.5479 13.356 17.6119 11.116 17.6119C9.21195 17.6119 7.67195 17.0239 6.49595 15.8199C5.34795 14.6159 4.75995 13.0759 4.75995 11.1999C4.75995 9.29591 5.34795 7.75591 6.49595 6.55191C7.67195 5.34791 9.21195 4.75991 11.116 4.75991C13.356 4.75991 15.232 5.79591 16.212 7.55991L19.544 5.62791C17.864 2.79991 14.672 1.00791 11.116 1.00791C8.17595 1.00791 5.73995 1.98791 3.80795 3.94791C1.87595 5.87991 0.92395 8.31591 0.92395 11.1999C0.92395 14.0839 1.87595 16.4919 3.80795 18.4519C5.73995 20.4119 8.17595 21.3919 11.116 21.3919Z" fill="black"/>
<path d="M25.5804 6.99991H21.9684V20.9999H25.5804V14.3079C25.5804 12.9639 26.0004 12.0119 26.8684 11.4239C27.7364 10.8359 28.7444 10.6119 29.8364 10.7519V6.71991C27.9324 6.71991 26.2524 7.61591 25.5804 9.40791V6.99991Z" fill="black"/>
<path d="M42.0693 8.65191C40.9773 7.27991 39.4653 6.60791 37.5053 6.60791C35.6293 6.60791 34.0333 7.33591 32.6893 8.76391C31.3733 10.1919 30.7013 11.9279 30.7013 13.9999C30.7013 16.0719 31.3733 17.8359 32.6893 19.2639C34.0333 20.6919 35.6293 21.3919 37.5053 21.3919C39.4653 21.3919 40.9773 20.7199 42.0693 19.3479V20.9999H45.6813V6.99991H42.0693V8.65191ZM35.4053 16.8559C34.6773 16.0999 34.3133 15.1479 34.3133 13.9999C34.3133 12.8519 34.6773 11.8999 35.4053 11.1719C36.1333 10.4159 37.0573 10.0519 38.1773 10.0519C39.2973 10.0519 40.2213 10.4159 40.9493 11.1719C41.7053 11.8999 42.0693 12.8519 42.0693 13.9999C42.0693 15.1479 41.7053 16.0999 40.9493 16.8559C40.2213 17.5839 39.2973 17.9479 38.1773 17.9479C37.0573 17.9479 36.1333 17.5839 35.4053 16.8559Z" fill="black"/>
<path d="M56.4886 1.00791C52.1206 0.755905 49.9086 2.91191 49.9086 6.85991V6.99991H47.8926V10.4719H49.9086V20.9999H53.5206V10.4719H56.4886V6.99991H53.5206V6.85991C53.5206 5.12391 54.5006 4.33991 56.4886 4.47991V1.00791Z" fill="black"/>
<path d="M66.5896 6.99991H63.4256V3.07991L59.8136 4.17191V6.99991H57.3776V10.4719H59.8136V16.2959C59.8136 20.1319 61.6336 21.5599 66.5896 20.9999V17.7239C64.5176 17.8359 63.4256 17.8079 63.4256 16.2959V10.4719H66.5896V6.99991Z" fill="black"/>
<path d="M78.5951 14.5599C78.5951 16.8839 77.3911 18.0319 75.5151 18.0319C73.8351 18.0319 72.7431 17.0239 72.7431 15.1479V6.99991H69.1311V15.5959C69.1311 17.4159 69.6351 18.8159 70.6151 19.8519C71.6231 20.8879 72.8831 21.3919 74.4231 21.3919C76.3271 21.3919 77.7271 20.7479 78.5951 19.4319V20.9999H82.2071V6.99991H78.5951V14.5599Z" fill="black"/>
<path d="M100.999 6.60791C99.1512 6.60791 97.7512 7.27991 96.8272 8.62391C96.0152 7.27991 94.7272 6.60791 93.0192 6.60791C91.2552 6.60791 89.9672 7.22391 89.1272 8.48391V6.99991H85.5152V20.9999H89.1272V13.1319C89.1272 11.0879 90.1632 9.96791 91.7592 9.96791C93.2432 9.96791 94.1112 10.9479 94.1112 12.6279V20.9999H97.7232V13.1319C97.7232 11.0879 98.6752 9.96791 100.327 9.96791C101.811 9.96791 102.679 10.9479 102.679 12.6279V20.9999H106.291V12.3759C106.291 8.87591 104.219 6.60791 100.999 6.60791Z" fill="black"/>
</svg>
