<svg width="120" height="120" viewBox="0 0 120 120" fill="none" xmlns="http://www.w3.org/2000/svg">
<rect width="120" height="120" rx="16" fill="white"/>
<path d="M62.6665 100.011C76.6152 100.011 88.9292 93.0362 95.4677 82.0298L82.4998 74.5106C78.9036 81.158 71.3844 85.299 62.6665 85.299C55.2563 85.299 49.2627 83.0106 44.6858 78.3247C40.2179 73.6388 37.9294 67.6453 37.9294 60.344C37.9294 52.9338 40.2179 46.9402 44.6858 42.2543C49.2627 37.5685 55.2563 35.28 62.6665 35.28C71.3844 35.28 78.6857 39.312 82.4998 46.1774L95.4677 38.6582C88.9292 27.6518 76.5062 20.6775 62.6665 20.6775C51.2242 20.6775 41.7435 24.4916 34.2243 32.1198C26.7051 39.639 23 49.1197 23 60.344C23 71.5683 26.7051 80.9401 34.2243 88.5682C41.7435 96.1964 51.2242 100.011 62.6665 100.011Z" fill="black"/>
</svg>
