<svg width="15" height="17" viewBox="0 0 15 17" fill="none" xmlns="http://www.w3.org/2000/svg">
<path fill-rule="evenodd" clip-rule="evenodd" d="M7.5 1.87508C6.18832 1.87508 5.125 2.9384 5.125 4.25008C5.125 5.56176 6.18832 6.62508 7.5 6.62508C8.81168 6.62508 9.875 5.56176 9.875 4.25008C9.875 2.93841 8.81168 1.87508 7.5 1.87508ZM3.54167 4.25008C3.54167 2.06395 5.31387 0.291748 7.5 0.291748C9.68613 0.291748 11.4583 2.06395 11.4583 4.25008C11.4583 6.43621 9.68613 8.20841 7.5 8.20841C5.31387 8.20841 3.54167 6.43621 3.54167 4.25008ZM1.53437 10.9511C2.2767 10.2088 3.28352 9.79175 4.33333 9.79175H10.6667C11.7165 9.79175 12.7233 10.2088 13.4656 10.9511C14.208 11.6934 14.625 12.7003 14.625 13.7501V15.3334C14.625 15.7706 14.2706 16.1251 13.8333 16.1251C13.3961 16.1251 13.0417 15.7706 13.0417 15.3334V13.7501C13.0417 13.1202 12.7914 12.5161 12.346 12.0707C11.9006 11.6253 11.2966 11.3751 10.6667 11.3751H4.33333C3.70345 11.3751 3.09935 11.6253 2.65395 12.0707C2.20856 12.5161 1.95833 13.1202 1.95833 13.7501V15.3334C1.95833 15.7706 1.60389 16.1251 1.16667 16.1251C0.729441 16.1251 0.375 15.7706 0.375 15.3334V13.7501C0.375 12.7003 0.792037 11.6934 1.53437 10.9511Z" fill="black"/>
</svg>
